Coordinates
version=1
nRows=16
nColumns=40
inDegrees=yes

Units are S.I. units (second, meters, Newtons, ...)
If the header above contains a line with 'inDegrees', this indicates whether rotational values are in degrees (yes) or radians (no).

endheader
time	pelvis_tilt	pelvis_list	pelvis_rotation	pelvis_tx	pelvis_ty	pelvis_tz	hip_flexion_r	hip_adduction_r	hip_rotation_r	knee_angle_r	knee_angle_r_beta	ankle_angle_r	subtalar_angle_r	mtp_angle_r	hip_flexion_l	hip_adduction_l	hip_rotation_l	knee_angle_l	knee_angle_l_beta	ankle_angle_l	subtalar_angle_l	mtp_angle_l	lumbar_extension	lumbar_bending	lumbar_rotation	arm_flex_r	arm_add_r	arm_rot_r	elbow_flex_r	pro_sup_r	wrist_flex_r	wrist_dev_r	arm_flex_l	arm_add_l	arm_rot_l	elbow_flex_l	pro_sup_l	wrist_flex_l	wrist_dev_l
      2.75000000	    -32.18104147	     -1.18829051	     -1.95050479	     -0.40584134	      0.62274256	     -0.90030307	     93.35542136	     -9.82457839	     -4.77459471	     94.73069230	      1.65336248	     35.56287475	      0.00000000	      0.00000000	     93.49450599	    -19.38863768	     -0.95648539	     94.90876933	      1.65647051	     34.89613190	      0.00000000	      0.00000000	     -8.33899613	    -14.52807153	     -3.22076757	      6.19437695	    -40.89782487	     73.43428822	     85.33742553	      3.29672974	      0.00000000	      0.00000000	     16.70142428	    -59.69768661	     86.32129054	    105.09976728	     87.96407419	      0.00000000	      0.00000000
      2.75500000	    -32.19510279	     -1.23072412	     -1.99961275	     -0.40583387	      0.62271729	     -0.90020934	     93.34879197	     -9.79405546	     -4.85287130	     94.71083646	      1.65301593	     35.54111118	      0.00000000	      0.00000000	     93.53437669	    -19.41234357	     -0.86375170	     94.92972167	      1.65683620	     34.90967826	      0.00000000	      0.00000000	     -8.28810795	    -14.49144924	     -3.14467021	      6.15841037	    -40.92646714	     73.40335475	     85.35872266	      3.18099590	      0.00000000	      0.00000000	     16.90902378	    -59.65748934	     86.56704383	    105.08477717	     87.87572593	      0.00000000	      0.00000000
      2.76000000	    -32.18458646	     -1.20556892	     -2.02388808	     -0.40580308	      0.62274843	     -0.90024260	     93.33901884	     -9.82281376	     -4.88044260	     94.66154099	      1.65215557	     35.42972141	      0.00000000	      0.00000000	     93.52150114	    -19.39487935	     -0.84279555	     94.96330663	      1.65742237	     34.94891711	      0.00000000	      0.00000000	     -8.38299271	    -14.52119434	     -3.31434349	      6.36844697	    -40.92579306	     73.65060650	     85.37781470	      3.38102876	      0.00000000	      0.00000000	     16.16977629	    -59.78784664	     85.76289042	    105.14641758	     88.04632668	      0.00000000	      0.00000000
      2.76500000	    -32.24238071	     -1.21138313	     -2.07242371	     -0.40585193	      0.62269038	     -0.90028671	     93.39220988	     -9.78899771	     -4.88923909	     94.67535183	      1.65239661	     35.51945878	      0.00000000	      0.00000000	     93.58245310	    -19.42706546	     -0.85832853	     94.96853747	      1.65751366	     34.97303518	      0.00000000	      0.00000000	     -8.26074629	    -14.50144440	     -3.20724702	      6.25495625	    -40.93262288	     73.51531672	     85.31975823	      3.16458481	      0.00000000	      0.00000000	     16.55262690	    -59.61700450	     86.14215430	    105.04116215	     87.92043161	      0.00000000	      0.00000000
      2.77000000	    -32.24393810	     -1.20154875	     -2.10842362	     -0.40598822	      0.62271525	     -0.90016805	     93.42097530	     -9.75753640	     -4.90125180	     94.65766894	      1.65208799	     35.28399938	      0.00000000	      0.00000000	     93.56893184	    -19.40794547	     -0.77118371	     94.90312467	      1.65637200	     34.81576004	      0.00000000	      0.00000000	     -8.25668543	    -14.55266127	     -3.24492844	      6.54695760	    -40.93866011	     73.98573960	     85.34234140	      3.38050784	      0.00000000	      0.00000000	     16.80344942	    -59.76181914	     86.52370583	    105.23342941	     87.76047233	      0.00000000	      0.00000000
      2.77500000	    -32.29461708	     -1.23678716	     -2.13045607	     -0.40590461	      0.62269246	     -0.90012747	     93.43776022	     -9.74274824	     -4.95938895	     94.64764426	      1.65191302	     35.41274840	      0.00000000	      0.00000000	     93.63848037	    -19.42285107	     -0.71874371	     94.91529423	      1.65658439	     34.96796844	      0.00000000	      0.00000000	     -8.17881056	    -14.50630003	     -3.17395592	      6.26694656	    -40.91515846	     73.57840750	     85.31281534	      3.17725359	      0.00000000	      0.00000000	     16.79151424	    -59.65615115	     86.48555523	    105.07291307	     87.87929780	      0.00000000	      0.00000000
      2.78000000	    -32.30502256	     -1.23756417	     -2.14458510	     -0.40587672	      0.62276035	     -0.90009675	     93.44417489	     -9.72336943	     -4.95799317	     94.64888905	      1.65193475	     35.33194755	      0.00000000	      0.00000000	     93.64425289	    -19.40667908	     -0.68788043	     94.91135534	      1.65651565	     34.82455331	      0.00000000	      0.00000000	     -8.31245649	    -14.51557344	     -3.48143735	      6.63209254	    -40.87759970	     73.96692496	     85.26012753	      3.51092625	      0.00000000	      0.00000000	     15.70333439	    -59.85357336	     85.26119099	    105.16321951	     88.16832169	      0.00000000	      0.00000000
      2.78500000	    -32.34097829	     -1.27373831	     -2.17375178	     -0.40591928	      0.62273602	     -0.90007958	     93.45277297	     -9.71292707	     -5.03177874	     94.61186541	      1.65128856	     35.45791364	      0.00000000	      0.00000000	     93.69797430	    -19.41121063	     -0.62403371	     94.90024396	      1.65632172	     35.02069351	      0.00000000	      0.00000000	     -8.14466358	    -14.47623046	     -3.24899328	      6.30590111	    -40.89391614	     73.56483423	     85.29841023	      3.00126967	      0.00000000	      0.00000000	     16.56485205	    -59.67543263	     86.24241421	    105.06978295	     87.86554452	      0.00000000	      0.00000000
      2.79000000	    -32.33336800	     -1.24027413	     -2.15516301	     -0.40589662	      0.62281271	     -0.90021661	     93.44254405	     -9.77115318	     -5.02546576	     94.60829561	      1.65122626	     35.44532092	      0.00000000	      0.00000000	     93.65524556	    -19.34179316	     -0.63828595	     94.89575179	      1.65624331	     34.94026699	      0.00000000	      0.00000000	     -8.11833816	    -14.52259963	     -3.25310864	      6.29738924	    -40.88179702	     73.59792144	     85.21961883	      3.21044676	      0.00000000	      0.00000000	     16.81592285	    -59.65013735	     86.53439273	    105.08546064	     87.87204676	      0.00000000	      0.00000000
      2.79500000	    -32.51711333	     -1.55988829	     -2.14899403	     -0.40612376	      0.62249039	     -0.89995632	     93.51027089	     -9.67155868	     -5.31739310	     94.57234355	      1.65059878	     35.76671197	      0.00000000	      0.00000000	     94.03491914	    -19.33314725	     -0.20036901	     94.86893384	      1.65577525	     35.03957108	      0.00000000	      0.00000000	     -8.10600114	    -14.19655599	     -3.69238063	      6.77638855	    -40.89347177	     74.08727886	     85.39872915	      2.31657260	      0.00000000	      0.00000000	     15.09490394	    -59.93885923	     84.71341339	    105.24718712	     87.76334594	      0.00000000	      0.00000000
      2.80000000	    -32.38655087	     -1.30712027	     -2.19536292	     -0.40581611	      0.62281899	     -0.90007109	     93.46278214	     -9.70353897	     -5.08367143	     94.58570576	      1.65083199	     35.44881889	      0.00000000	      0.00000000	     93.73568268	    -19.35225666	     -0.50127486	     94.90589252	      1.65642030	     34.96053880	      0.00000000	      0.00000000	     -8.03790959	    -14.50178184	     -3.31428183	      6.31282762	    -40.81871389	     73.59773082	     85.13387926	      3.14738572	      0.00000000	      0.00000000	     16.72657494	    -59.66113636	     86.46530558	    105.08097767	     87.86861421	      0.00000000	      0.00000000
      2.80500000	    -32.40974139	     -1.32332814	     -2.23013113	     -0.40582166	      0.62283502	     -0.90000100	     93.46869277	     -9.65285886	     -5.09947003	     94.55635474	      1.65031972	     35.38472313	      0.00000000	      0.00000000	     93.76677407	    -19.37124722	     -0.46072754	     94.89182961	      1.65617486	     34.96133121	      0.00000000	      0.00000000	     -7.98031036	    -14.49935896	     -3.33670291	      6.39684270	    -40.80710940	     73.72156952	     85.12147800	      3.17520922	      0.00000000	      0.00000000	     16.66397050	    -59.67621670	     86.42274631	    105.08998562	     87.88710791	      0.00000000	      0.00000000
      2.81000000	    -32.64786108	     -1.61271363	     -2.14241976	     -0.40618684	      0.62253066	     -0.90000072	     93.62782452	     -9.69561984	     -5.39750498	     94.51034591	      1.64951671	     35.38984400	      0.00000000	      0.00000000	     94.19106484	    -19.24121692	     -0.05557713	     94.83487567	      1.65518083	     34.89072820	      0.00000000	      0.00000000	     -7.72550692	    -14.17038303	     -3.38203111	      6.31315731	    -40.85498463	     73.63863555	     85.16564523	      3.03449281	      0.00000000	      0.00000000	     16.69083722	    -59.63256474	     86.46829422	    105.07884821	     87.85664859	      0.00000000	      0.00000000
      2.81500000	    -32.57221218	     -1.59849779	     -2.17630795	     -0.40597313	      0.62267406	     -0.89997938	     93.52429213	     -9.66497198	     -5.38508458	     94.49591110	      1.64926478	     35.46757993	      0.00000000	      0.00000000	     94.08935673	    -19.28407965	     -0.08956267	     94.88808858	      1.65610957	     34.91628826	      0.00000000	      0.00000000	     -7.78110824	    -14.21202658	     -3.42016189	      6.37312014	    -40.80475419	     73.69421267	     85.07897462	      3.11003610	      0.00000000	      0.00000000	     16.69396222	    -59.64403153	     86.53205946	    105.08052739	     87.83362041	      0.00000000	      0.00000000
      2.82000000	    -32.38429107	     -1.30097509	     -2.24057317	     -0.40562398	      0.62310777	     -0.90008604	     93.41142993	     -9.65259331	     -5.07739877	     94.52945835	      1.64985029	     35.42766352	      0.00000000	      0.00000000	     93.68408708	    -19.32197431	     -0.44325666	     94.86041493	      1.65562657	     35.05506368	      0.00000000	      0.00000000	     -7.99163435	    -14.52978545	     -3.42751096	      6.39517115	    -40.74912832	     73.67148241	     85.04393962	      3.20189020	      0.00000000	      0.00000000	     16.76029386	    -59.64624036	     86.57185604	    105.04727796	     87.86304411	      0.00000000	      0.00000000
      2.82500000	    -32.61044418	     -1.64594225	     -2.14723270	     -0.40593138	      0.62282439	     -0.90008094	     93.51740068	     -9.69438647	     -5.43283495	     94.45343165	      1.64852337	     35.46194747	      0.00000000	      0.00000000	     94.12054198	    -19.20421801	     -0.00828397	     94.83951470	      1.65526179	     34.90443817	      0.00000000	      0.00000000	     -7.74717897	    -14.13721804	     -3.52245545	      6.39072619	    -40.80288878	     73.67837454	     85.07213436	      3.19878474	      0.00000000	      0.00000000	     16.73322228	    -59.58896318	     86.62514859	    105.00939924	     87.88498334	      0.00000000	      0.00000000
